Coordinates
version=1
nRows=84
nColumns=11
inDegrees=no

Units are S.I. units (second, meters, Newtons, ...)
If the header above contains a line with 'inDegrees', this indicates whether rotational values are in degrees (yes) or radians (no).

endheader
time	pelvis_tilt	pelvis_tx	pelvis_ty	hip_flexion_r	knee_angle_r	ankle_angle_r	hip_flexion_l	knee_angle_l	ankle_angle_l	lumbar_extension
105.01	-0.0191747	0.210392	0.931625	-0.0299974	-0.279084	0.224027	0.463992	-0.693492	-0.00928993	0
105.02	-0.0299798	0.208314	0.929994	-0.0378216	-0.265463	0.233468	0.470714	-0.617566	-0.00603201	0
105.03	-0.0321393	0.207726	0.92844	-0.0515141	-0.263453	0.246914	0.464656	-0.542243	-0.00587224	0
105.04	-0.0332758	0.207307	0.926503	-0.0667065	-0.261922	0.257671	0.454649	-0.464466	0.00221092	0
105.05	-0.0324738	0.2077	0.924326	-0.0869897	-0.256571	0.272179	0.43725	-0.379297	0.0115136	0
105.06	-0.0312451	0.20848	0.921698	-0.109333	-0.24996	0.288547	0.418321	-0.295678	0.0187422	0
105.07	-0.0295728	0.20942	0.919119	-0.132129	-0.243583	0.303747	0.404513	-0.230628	0.0296689	0
105.08	-0.0276168	0.210291	0.91661	-0.154519	-0.238644	0.317543	0.392948	-0.175924	0.0436004	0
105.09	-0.0252846	0.21129	0.914013	-0.175609	-0.237149	0.32828	0.38229	-0.128402	0.0594483	0
105.1	-0.0232297	0.212516	0.911297	-0.195383	-0.238198	0.338813	0.371731	-0.0864392	0.0710334	0
105.11	-0.0210428	0.21396	0.908686	-0.213598	-0.240636	0.348527	0.362668	-0.0526912	0.0745703	0
105.12	-0.00331189	0.217037	0.907043	-0.251707	-0.24576	0.360847	0.33591	-0.0322177	0.0789921	0
105.13	-0.0139873	0.216603	0.903653	-0.250669	-0.252752	0.367108	0.352051	-0.0296283	0.0748266	0
105.14	0.0021125	0.218978	0.902181	-0.278587	-0.273822	0.377622	0.334351	-0.0405177	0.0694626	0
105.15	0.00538835	0.220224	0.900504	-0.28785	-0.296761	0.377737	0.333008	-0.0616851	0.0508466	0
105.16	0.00624133	0.221099	0.898623	-0.289776	-0.328061	0.376798	0.336693	-0.0903766	0.0201196	0
105.17	0.00644044	0.221954	0.896721	-0.288311	-0.363743	0.371994	0.342467	-0.121238	-0.0161979	0
105.18	-0.00490347	0.222152	0.894426	-0.270744	-0.399072	0.357588	0.364585	-0.150772	-0.0545295	0
105.19	0.0108784	0.224869	0.894272	-0.285983	-0.440906	0.339797	0.349241	-0.178102	-0.0851906	0
105.2	0.0135027	0.226386	0.893705	-0.277605	-0.491319	0.312827	0.352995	-0.211781	-0.10728	0
105.21	0.0159831	0.227643	0.893394	-0.26398	-0.548599	0.278139	0.357218	-0.251093	-0.10906	0
105.22	0.018214	0.228741	0.893655	-0.245164	-0.609741	0.233206	0.362917	-0.294995	-0.0893186	0
105.23	0.0199272	0.229446	0.894503	-0.221564	-0.673182	0.181877	0.366682	-0.335031	-0.0610815	0
105.24	0.0206203	0.229961	0.895375	-0.193362	-0.740399	0.132854	0.364659	-0.362297	-0.0388874	0
105.25	0.0204858	0.229814	0.896337	-0.160377	-0.811549	0.0888219	0.362324	-0.386034	-0.0180391	0
105.26	0.019494	0.229211	0.897334	-0.123434	-0.883528	0.0419615	0.358964	-0.406149	0.00155141	0
105.27	0.00834735	0.227513	0.89781	-0.0712177	-0.954437	-0.00436489	0.365818	-0.420097	0.0240307	0
105.28	0.0232122	0.22992	0.900043	-0.060681	-1.0074	-0.0348326	0.337191	-0.433881	0.0493731	0
105.29	0.0237123	0.229683	0.901872	-0.0292862	-1.06159	-0.0352365	0.324304	-0.440708	0.06632	0
105.3	0.0235398	0.228772	0.904027	0.0038919	-1.11477	-0.0130591	0.311862	-0.446156	0.084007	0
105.31	0.022137	0.227443	0.906573	0.037504	-1.15964	0.0142698	0.298636	-0.44596	0.0955001	0
105.32	0.0225136	0.226584	0.909338	0.0689104	-1.19655	0.0365826	0.280681	-0.440345	0.101662	0
105.33	0.0227675	0.225877	0.91243	0.0992629	-1.22427	0.0517502	0.261761	-0.432852	0.105632	0
105.34	0.0210268	0.224774	0.915513	0.132632	-1.24652	0.0647134	0.24368	-0.421164	0.110202	0
105.35	0.022804	0.223733	0.918922	0.159748	-1.26202	0.0725445	0.221469	-0.411554	0.116005	0
105.36	0.022952	0.222434	0.921973	0.189124	-1.27245	0.0786857	0.200846	-0.399817	0.118532	0
105.37	0.0251565	0.22158	0.92483	0.214023	-1.27596	0.0873464	0.176811	-0.385112	0.121464	0
105.38	0.0250778	0.220417	0.927428	0.240182	-1.27401	0.0941292	0.15328	-0.367097	0.124718	0
105.39	0.0240717	0.219092	0.929683	0.267031	-1.26701	0.0993275	0.132114	-0.351104	0.130381	0
105.4	0.0229302	0.217535	0.931803	0.292298	-1.25437	0.108187	0.111717	-0.336017	0.13801	0
105.41	0.0216453	0.215575	0.933815	0.31622	-1.23771	0.119094	0.0928156	-0.324362	0.14156	0
105.42	0.0059706	0.211463	0.934312	0.362653	-1.22264	0.131056	0.0930093	-0.310158	0.140873	0
105.43	0.0173946	0.211581	0.936572	0.362829	-1.19024	0.139046	0.0591476	-0.301535	0.14544	0
105.44	0.0176778	0.210116	0.937867	0.378242	-1.15559	0.144653	0.03917	-0.289644	0.150009	0
105.45	0.016832	0.208742	0.938852	0.392864	-1.1163	0.146582	0.0211817	-0.279125	0.156154	0
105.46	0.0140834	0.207082	0.939286	0.407396	-1.07209	0.14355	0.00666433	-0.271043	0.162268	0
105.47	0.0110543	0.205419	0.939363	0.420208	-1.02331	0.145696	-0.00572883	-0.267981	0.170326	0
105.48	0.00844151	0.203694	0.939	0.42911	-0.968978	0.152376	-0.0179796	-0.265804	0.181672	0
105.49	0.00675212	0.202161	0.938446	0.434387	-0.910239	0.155971	-0.031994	-0.262551	0.192716	0
105.5	0.00546056	0.201283	0.937621	0.435931	-0.84563	0.151523	-0.045892	-0.260558	0.206599	0
105.51	0.00341516	0.200099	0.936442	0.435816	-0.776569	0.139276	-0.0579121	-0.261341	0.219875	0
105.52	0.000779279	0.19888	0.935114	0.435121	-0.705817	0.120696	-0.0691602	-0.261986	0.232417	0
105.53	-0.0136022	0.195915	0.932828	0.447022	-0.631552	0.10378	-0.0663664	-0.259885	0.243362	0
105.54	-0.0150257	0.195503	0.931051	0.438507	-0.553218	0.0966645	-0.0808979	-0.258678	0.256933	0
105.55	-0.017704	0.194904	0.928738	0.431579	-0.47589	0.0979877	-0.0911602	-0.262874	0.271926	0
105.56	-0.0190595	0.194676	0.926312	0.421808	-0.398597	0.095592	-0.105778	-0.262733	0.287755	0
105.57	-0.00554028	0.197122	0.924678	0.391092	-0.321848	0.0934925	-0.141403	-0.260646	0.30188	0
105.58	-0.018665	0.195766	0.921333	0.394181	-0.245401	0.0904749	-0.143436	-0.255311	0.311211	0
105.59	-0.0061197	0.1985	0.919188	0.366943	-0.179177	0.0908888	-0.177071	-0.2562	0.328933	0
105.6	-0.00350368	0.19958	0.916422	0.356138	-0.124804	0.0917144	-0.20036	-0.250597	0.342587	0
105.61	-0.00125305	0.200604	0.913656	0.346703	-0.0785072	0.0921959	-0.222139	-0.247895	0.355348	0
105.62	0.000450389	0.201517	0.910932	0.338293	-0.041425	0.0903509	-0.240904	-0.251001	0.365647	0
105.63	0.00159142	0.202606	0.908256	0.335206	-0.023299	0.0915547	-0.256918	-0.256937	0.37504	0
105.64	0.00163963	0.203533	0.905668	0.338667	-0.0261127	0.0936893	-0.269334	-0.266073	0.380739	0
105.65	0.00239073	0.204428	0.903215	0.345463	-0.0470499	0.090115	-0.280971	-0.277022	0.381552	0
105.66	0.0035417	0.205446	0.900972	0.352284	-0.0773317	0.0776076	-0.289351	-0.296021	0.383169	0
105.67	0.00441788	0.2071	0.898895	0.359506	-0.111352	0.0567719	-0.294052	-0.319702	0.383743	0
105.68	0.00465104	0.207569	0.897137	0.363075	-0.141274	0.0350748	-0.29863	-0.345005	0.379438	0
105.69	0.00688928	0.209517	0.895611	0.362255	-0.165716	0.00972006	-0.303982	-0.372511	0.370438	0
105.7	0.00801722	0.21128	0.894272	0.362839	-0.188492	-0.0312687	-0.301832	-0.411699	0.358081	0
105.71	0.0102136	0.213607	0.893085	0.362697	-0.212345	-0.0722998	-0.29925	-0.454164	0.339862	0
105.72	0.0126996	0.215788	0.892042	0.365767	-0.244294	-0.100345	-0.291856	-0.503938	0.313123	0
105.73	0.0157851	0.217776	0.891372	0.371691	-0.287355	-0.095593	-0.278859	-0.561613	0.276289	0
105.74	0.0166598	0.219171	0.891389	0.382757	-0.339985	-0.070845	-0.255754	-0.626795	0.226281	0
105.75	0.0164708	0.220028	0.891708	0.390871	-0.385612	-0.0462978	-0.224822	-0.697972	0.169412	0
105.76	0.0161246	0.220638	0.892271	0.393209	-0.418684	-0.0275419	-0.189528	-0.77207	0.112031	0
105.77	0.0160157	0.221231	0.893212	0.3907	-0.443414	-0.00782284	-0.151209	-0.847888	0.0527646	0
105.78	0.0141763	0.221704	0.894055	0.386436	-0.460391	0.0130625	-0.108686	-0.922556	-0.00900209	0
105.79	0.0137007	0.221961	0.894989	0.378769	-0.474588	0.0322131	-0.0677862	-0.991024	-0.0733364	0
105.8	0.0130585	0.221832	0.896039	0.368675	-0.484448	0.0513303	-0.0291179	-1.0496	-0.128068	0
105.81	0.0121792	0.221676	0.897288	0.356533	-0.490187	0.0741588	0.00827249	-1.1028	-0.15964	0
105.82	0.0124612	0.221387	0.899172	0.339889	-0.490948	0.0960901	0.0438324	-1.15242	-0.165907	0
105.83	0.0363613	0.224708	0.902154	0.297361	-0.501109	0.113631	0.0494616	-1.19901	-0.159133	0
105.84	0.0382531	0.224694	0.904977	0.27853	-0.50021	0.126438	0.0804266	-1.23226	-0.146164	0
